<svg width="42" height="46" viewBox="0 0 42 46" fill="none" xmlns="http://www.w3.org/2000/svg">
<g clip-path="url(#clip0_15_23)">
<path d="M1.75 2.54593H8.75L13.44 27.3419C13.6 28.1945 14.0383 28.9603 14.6782 29.5054C15.3181 30.0505 16.1187 30.34 16.94 30.3234H33.95C34.7713 30.34 35.5719 30.0505 36.2118 29.5054C36.8517 28.9603 37.29 28.1945 37.45 27.3419L40.25 11.8051H10.5M17.5 39.5825C17.5 40.6052 16.7165 41.4343 15.75 41.4343C14.7835 41.4343 14 40.6052 14 39.5825C14 38.5598 14.7835 37.7307 15.75 37.7307C16.7165 37.7307 17.5 38.5598 17.5 39.5825ZM36.75 39.5825C36.75 40.6052 35.9665 41.4343 35 41.4343C34.0335 41.4343 33.25 40.6052 33.25 39.5825C33.25 38.5598 34.0335 37.7307 35 37.7307C35.9665 37.7307 36.75 38.5598 36.75 39.5825Z" stroke="#F2C559" stroke-width="3.5" stroke-linecap="round" stroke-linejoin="round"/>
</g>
<defs>
<clipPath id="clip0_15_23">
<rect width="42" height="44.4439" fill="white" transform="translate(0 0.694092)"/>
</clipPath>
</defs>
</svg>
